HIERARCHY
ROOT Hips
{
	OFFSET 0.000000 103.266502 0.000000
	CHANNELS 6 Xposition Yposition Zposition Xrotation Yrotation Zrotation 
	JOINT Spine
	{
		OFFSET -0.002400 12.777504 0.315300
		CHANNELS 3 Xrotation Yrotation Zrotation
		JOINT Spine1
		{
			OFFSET -0.002067 5.816869 0.032633
			CHANNELS 3 Xrotation Yrotation Zrotation
			JOINT Spine1_split
			{
				OFFSET -0.002067 5.816869 0.032633
				CHANNELS 3 Xrotation Yrotation Zrotation
				JOINT Spine2
				{
					OFFSET -0.002067 5.816869 0.032633
					CHANNELS 3 Xrotation Yrotation Zrotation
					JOINT Neck
					{
						OFFSET -0.003700 21.199493 -0.826900
						CHANNELS 3 Xrotation Yrotation Zrotation
						JOINT Head
						{
							OFFSET 0.000000 20.442200 4.834800
							CHANNELS 3 Xrotation Yrotation Zrotation
							JOINT HeadTop_End
							{
								OFFSET 0.000000 34.668396 4.968400
								CHANNELS 3 Xrotation Yrotation Zrotation
								End Site
								{
									OFFSET 0.000000 0.000000 0.000000
								}
							}
						}
					}
					JOINT LeftShoulder
					{
						OFFSET 3.288150 8.794197 -1.372250
						CHANNELS 3 Xrotation Yrotation Zrotation
						JOINT LeftShoulder_split
						{
							OFFSET 3.288150 8.794197 -1.372250
							CHANNELS 3 Xrotation Yrotation Zrotation
							JOINT LeftArm
							{
								OFFSET 11.953299 -2.279007 -0.146200
								CHANNELS 3 Xrotation Yrotation Zrotation
								JOINT LeftForeArm
								{
									OFFSET 18.448900 0.000000 0.000000
									CHANNELS 3 Xrotation Yrotation Zrotation
									JOINT LeftHand
									{
										OFFSET 29.527798 0.000000 0.000000
										CHANNELS 3 Xrotation Yrotation Zrotation
										JOINT LeftHandThumb1
										{
											OFFSET 10.739754 -2.369614 9.225399
											CHANNELS 3 Xrotation Yrotation Zrotation
											JOINT LeftHandThumb2
											{
												OFFSET 4.926170 -2.844131 2.844125
												CHANNELS 3 Xrotation Yrotation Zrotation
												JOINT LeftHandThumb3
												{
													OFFSET 4.614891 -2.664413 2.664409
													CHANNELS 3 Xrotation Yrotation Zrotation
													JOINT LeftHandThumb4
													{
														OFFSET 4.432465 -2.559082 2.559083
														CHANNELS 3 Xrotation Yrotation Zrotation
														End Site
														{
															OFFSET 0.000000 0.000000 0.000000
														}
													}
												}
											}
										}
										JOINT LeftHandIndex1
										{
											OFFSET 26.467674 0.187653 6.405298
											CHANNELS 3 Xrotation Yrotation Zrotation
											JOINT LeftHandIndex2
											{
												OFFSET 8.792900 0.000000 0.000000
												CHANNELS 3 Xrotation Yrotation Zrotation
												JOINT LeftHandIndex3
												{
													OFFSET 10.075203 0.000000 0.000000
													CHANNELS 3 Xrotation Yrotation Zrotation
													End Site
													{
														OFFSET 0.000000 0.000000 0.000000
													}
												}
											}
										}
										JOINT LeftHandMiddle1
										{
											OFFSET 25.764404 0.000000 0.000000
											CHANNELS 3 Xrotation Yrotation Zrotation
											JOINT LeftHandMiddle2
											{
												OFFSET 9.393974 0.000000 0.000000
												CHANNELS 3 Xrotation Yrotation Zrotation
												JOINT LeftHandMiddle3
												{
													OFFSET 10.771950 0.000000 0.000000
													CHANNELS 3 Xrotation Yrotation Zrotation
													End Site
													{
														OFFSET 0.000000 0.000000 0.000000
													}
												}
											}
										}
										JOINT LeftHandRing1
										{
											OFFSET 24.660927 0.144547 -6.225808
											CHANNELS 3 Xrotation Yrotation Zrotation
											JOINT LeftHandRing2
											{
												OFFSET 9.393799 0.000000 0.000000
												CHANNELS 3 Xrotation Yrotation Zrotation
												JOINT LeftHandRing3
												{
													OFFSET 9.928497 0.000000 0.000000
													CHANNELS 3 Xrotation Yrotation Zrotation
													End Site
													{
														OFFSET 0.000000 0.000000 0.000000
													}
												}
											}
										}
										JOINT LeftHandPinky1
										{
											OFFSET 23.655350 0.125290 -12.815412
											CHANNELS 3 Xrotation Yrotation Zrotation
											JOINT LeftHandPinky2
											{
												OFFSET 8.425102 0.000000 0.000000
												CHANNELS 3 Xrotation Yrotation Zrotation
												JOINT LeftHandPinky3
												{
													OFFSET 8.147003 0.000000 0.000000
													CHANNELS 3 Xrotation Yrotation Zrotation
													End Site
													{
														OFFSET 0.000000 0.000000 0.000000
													}
												}
											}
										}
									}
								}
							}
						}
					}
					JOINT RightShoulder
					{
						OFFSET -3.249400 8.794197 -1.372250
						CHANNELS 3 Xrotation Yrotation Zrotation
						JOINT RightShoulder_split
						{
							OFFSET -3.249400 8.794197 -1.372250
							CHANNELS 3 Xrotation Yrotation Zrotation
							JOINT RightArm
							{
								OFFSET -11.953299 -2.279007 -0.146200
								CHANNELS 3 Xrotation Yrotation Zrotation
								JOINT RightForeArm
								{
									OFFSET -18.448900 0.000000 0.000000
									CHANNELS 3 Xrotation Yrotation Zrotation
									JOINT RightHand
									{
										OFFSET -29.527802 0.000000 0.000000
										CHANNELS 3 Xrotation Yrotation Zrotation
										JOINT RightHandThumb1
										{
											OFFSET -10.739754 -2.369614 9.225399
											CHANNELS 3 Xrotation Yrotation Zrotation
											JOINT RightHandThumb2
											{
												OFFSET -4.926170 -2.844131 2.844125
												CHANNELS 3 Xrotation Yrotation Zrotation
												JOINT RightHandThumb3
												{
													OFFSET -4.614891 -2.664413 2.664409
													CHANNELS 3 Xrotation Yrotation Zrotation
													JOINT RightHandThumb4
													{
														OFFSET -4.432465 -2.559082 2.559083
														CHANNELS 3 Xrotation Yrotation Zrotation
														End Site
														{
															OFFSET 0.000000 0.000000 0.000000
														}
													}
												}
											}
										}
										JOINT RightHandIndex1
										{
											OFFSET -26.467674 0.187653 6.405298
											CHANNELS 3 Xrotation Yrotation Zrotation
											JOINT RightHandIndex2
											{
												OFFSET -8.792900 0.000000 0.000000
												CHANNELS 3 Xrotation Yrotation Zrotation
												JOINT RightHandIndex3
												{
													OFFSET -10.075203 0.000000 0.000000
													CHANNELS 3 Xrotation Yrotation Zrotation
													End Site
													{
														OFFSET 0.000000 0.000000 0.000000
													}
												}
											}
										}
										JOINT RightHandMiddle1
										{
											OFFSET -25.764404 0.000000 0.000000
											CHANNELS 3 Xrotation Yrotation Zrotation
											JOINT RightHandMiddle2
											{
												OFFSET -9.393974 0.000000 0.000000
												CHANNELS 3 Xrotation Yrotation Zrotation
												JOINT RightHandMiddle3
												{
													OFFSET -10.771950 0.000000 0.000000
													CHANNELS 3 Xrotation Yrotation Zrotation
													End Site
													{
														OFFSET 0.000000 0.000000 0.000000
													}
												}
											}
										}
										JOINT RightHandRing1
										{
											OFFSET -24.660927 0.144547 -6.225808
											CHANNELS 3 Xrotation Yrotation Zrotation
											JOINT RightHandRing2
											{
												OFFSET -9.393799 0.000000 0.000000
												CHANNELS 3 Xrotation Yrotation Zrotation
												JOINT RightHandRing3
												{
													OFFSET -9.928497 0.000000 0.000000
													CHANNELS 3 Xrotation Yrotation Zrotation
													End Site
													{
														OFFSET 0.000000 0.000000 0.000000
													}
												}
											}
										}
										JOINT RightHandPinky1
										{
											OFFSET -23.655350 0.125290 -12.815412
											CHANNELS 3 Xrotation Yrotation Zrotation
											JOINT RightHandPinky2
											{
												OFFSET -8.425102 0.000000 0.000000
												CHANNELS 3 Xrotation Yrotation Zrotation
												JOINT RightHandPinky3
												{
													OFFSET -8.147003 0.000000 0.000000
													CHANNELS 3 Xrotation Yrotation Zrotation
													End Site
													{
														OFFSET 0.000000 0.000000 0.000000
													}
												}
											}
										}
									}
								}
							}
						}
					}
				}
			}
		}
	}
	JOINT LeftUpLeg
	{
		OFFSET 11.394100 -6.187798 -0.413800
		CHANNELS 3 Xrotation Yrotation Zrotation
		JOINT LeftLeg
		{
			OFFSET 0.430247 -32.302673 3.732800
			CHANNELS 3 Xrotation Yrotation Zrotation
			JOINT LeftFoot
			{
				OFFSET -0.430247 -48.264931 -6.423300
				CHANNELS 3 Xrotation Yrotation Zrotation
				JOINT LeftToeBase
				{
					OFFSET 4.230900 -16.068199 23.438400
					CHANNELS 3 Xrotation Yrotation Zrotation
					JOINT LeftToe_End
					{
						OFFSET 4.510700 0.695400 19.974600
						CHANNELS 3 Xrotation Yrotation Zrotation
						End Site
						{
							OFFSET 0.000000 0.000000 0.000000
						}
					}
				}
			}
		}
	}
	JOINT RightUpLeg
	{
		OFFSET -11.333700 -6.187798 -0.413800
		CHANNELS 3 Xrotation Yrotation Zrotation
		JOINT RightLeg
		{
			OFFSET -0.430392 -32.302628 3.733000
			CHANNELS 3 Xrotation Yrotation Zrotation
			JOINT RightFoot
			{
				OFFSET 0.430392 -48.264973 -6.423500
				CHANNELS 3 Xrotation Yrotation Zrotation
				JOINT RightToeBase
				{
					OFFSET -4.230900 -16.068199 23.438400
					CHANNELS 3 Xrotation Yrotation Zrotation
					JOINT RightToe_End
					{
						OFFSET -4.510700 0.695400 19.974600
						CHANNELS 3 Xrotation Yrotation Zrotation
						End Site
						{
							OFFSET 0.000000 0.000000 0.000000
						}
					}
				}
			}
		}
	}
}
MOTION
Frames: 4
Frame Time: 0.016667
-7.530128 95.279236 85.684654 23.452558 13.313810 -8.201439 9.554207 1.000099 -2.048751 -0.471730 1.782884 -0.358117 0.000000 0.000000 0.000000 -0.315423 2.367529 -0.492584 -11.049971 -0.300772 0.541620 -9.090197 2.277658 -2.833869 0.000001 -0.000002 -0.000000 0.804512 -1.055561 -19.731156 0.000000 0.000000 0.000000 11.314144 -4.215694 -51.272553 -0.000000 -61.671779 -0.000007 -22.443202 13.772008 -17.933483 74.824012 -40.508076 61.030281 25.606292 5.176746 -82.902248 43.119999 21.632223 -34.957482 -0.000002 0.000000 0.000001 5.901618 7.863756 -80.435525 5.375072 5.831737 -85.325722 -0.000000 0.000001 -0.000000 5.020590 8.216385 -91.029387 4.694990 5.736110 -78.585083 0.000000 -0.000001 0.000000 4.404984 8.246840 -91.688398 5.835740 5.851046 -89.849752 0.000001 -0.000000 -0.000002 5.249097 8.404194 -99.924650 2.493725 4.794745 -54.937571 -0.000002 -0.000000 0.000000 0.318347 6.828687 17.985686 0.000000 0.000000 0.000000 14.222233 -10.989038 46.953842 -0.000018 67.377801 0.000023 -3.079467 -19.120684 7.109492 47.809716 35.835373 -5.333807 34.631320 -33.014505 35.094595 43.708549 -16.938073 39.158711 0.000002 -0.000001 -0.000002 6.363553 -7.114824 84.445133 4.420394 -4.651172 87.082487 -0.000002 -0.000000 -0.000002 7.913305 -6.614848 96.213494 4.359606 -4.647663 86.332683 -0.000003 -0.000000 0.000000 5.619624 -6.842400 101.279978 3.622440 -4.541009 77.149104 0.000002 -0.000000 0.000001 5.448576 -6.873473 99.955208 1.714558 -3.611334 50.782515 -0.000002 -0.000000 -0.000001 -38.328030 -2.037814 -6.617244 34.654058 -4.725533 -3.237195 -18.996412 2.608149 11.048636 -0.349018 0.000003 -0.000004 0.000000 0.000000 0.000000 -62.831566 -4.662158 -14.159676 55.832893 -8.622953 0.512912 9.747185 -4.191358 14.414143 -21.654083 0.007467 -0.040494 0.000000 -0.000002 -0.000000 
-7.437784 95.290482 88.238426 23.719290 13.963617 -8.516294 9.419929 0.673507 -1.877944 -0.422844 1.770879 -0.370540 0.000000 0.000000 0.000000 -0.273313 2.351419 -0.497370 -11.032306 -0.263008 0.489892 -9.196461 2.170658 -2.889698 -0.000000 -0.000001 -0.000000 0.828885 -1.055385 -19.581363 0.000000 0.000000 0.000000 11.301113 -4.179480 -51.475161 0.000011 -61.665516 -0.000001 -22.424831 13.662197 -18.020850 74.824012 -40.508080 61.030274 25.831905 5.594314 -83.199074 43.102783 21.672889 -34.905818 -0.000003 0.000001 -0.000001 5.804524 7.842035 -80.834428 5.406400 5.834199 -85.633948 -0.000001 0.000001 0.000000 5.050367 8.220834 -91.320299 4.691301 5.735367 -78.548145 0.000001 -0.000000 0.000000 4.420651 8.250804 -91.840609 5.847101 5.851056 -89.961228 -0.000001 -0.000000 0.000001 5.222600 8.401222 -99.673606 2.447225 4.761885 -54.379323 -0.000001 0.000000 0.000000 0.322454 6.792932 17.816151 0.000000 0.000000 0.000000 14.532761 -11.075061 47.066034 0.000013 67.339614 -0.000002 -3.353846 -18.746258 7.238120 47.809723 35.835380 -5.333807 34.631313 -33.014495 35.094595 43.484396 -17.047845 38.914600 -0.000002 0.000000 -0.000000 6.477982 -7.129509 84.356805 4.420343 -4.651150 87.082050 -0.000002 -0.000000 -0.000001 7.925222 -6.629792 95.875591 4.359705 -4.647668 86.333946 -0.000000 0.000001 0.000000 5.608972 -6.844498 101.146489 3.622723 -4.541071 77.152745 0.000002 -0.000001 0.000000 5.470961 -6.869692 100.094783 1.712310 -3.609506 50.746851 0.000001 0.000000 0.000001 -36.140662 -3.780802 -6.349261 33.617590 -3.657847 -3.527768 -20.401271 2.019429 10.494918 -0.358341 0.000011 -0.000004 0.000000 -0.000000 0.000000 -63.744878 -4.507474 -14.134574 51.906487 -8.303835 0.256518 10.871464 -5.221512 13.554966 -18.188743 0.003349 -0.032558 -0.000000 0.000000 -0.000000 
-7.351011 95.185753 90.805962 23.985688 14.486531 -8.743680 9.244114 0.338224 -1.810236 -0.374502 1.775979 -0.381387 0.000000 0.000000 0.000000 -0.232039 2.353979 -0.505842 -11.041546 -0.226219 0.447395 -9.369442 2.134338 -2.939960 0.000001 -0.000002 0.000000 0.850978 -1.055165 -19.445718 0.000000 0.000000 0.000000 11.378949 -4.063369 -51.572631 -0.000010 -61.739630 -0.000008 -22.565943 13.410603 -18.078252 74.824012 -40.508073 61.030274 25.822068 5.576445 -83.186855 43.067256 21.683352 -34.871674 -0.000003 0.000000 -0.000000 5.795706 7.839590 -80.912572 5.409757 5.834454 -85.666930 -0.000001 -0.000001 -0.000000 5.057600 8.221892 -91.390875 4.690764 5.735255 -78.542749 0.000001 -0.000001 -0.000000 4.426187 8.252190 -91.894417 5.849540 5.851061 -89.985065 -0.000000 0.000001 -0.000000 5.222021 8.401157 -99.668122 2.445854 4.760902 -54.362773 0.000000 -0.000000 0.000001 0.330587 6.717019 17.586544 0.000000 0.000000 0.000000 14.906727 -11.096846 47.280718 0.000029 67.421166 -0.000014 -3.553411 -18.321006 7.173597 47.809719 35.835380 -5.333806 34.631320 -33.014498 35.094595 43.382046 -17.096595 38.803824 -0.000002 -0.000000 0.000003 6.464552 -7.132953 84.233854 4.420338 -4.651160 87.081756 -0.000002 0.000001 -0.000001 7.910794 -6.635652 95.783725 4.359815 -4.647686 86.335237 -0.000001 0.000000 -0.000001 5.607736 -6.844742 101.131025 3.623030 -4.541148 77.156467 0.000003 0.000001 0.000000 5.469711 -6.869913 100.086416 1.712256 -3.609461 50.745946 0.000001 -0.000001 0.000000 -33.939698 -5.180704 -6.012778 32.656268 -2.501457 -3.708917 -21.851570 1.233332 9.850080 -0.363118 0.000009 -0.000003 0.000000 0.000001 -0.000000 -64.805880 -4.162561 -13.864352 47.523664 -7.548568 0.180063 12.933560 -6.332133 12.407475 -15.212467 0.003169 -0.042852 0.000000 0.000001 0.000000 
-7.284807 94.882652 93.473526 24.161536 14.926574 -8.792514 9.053720 -0.000133 -1.964022 -0.327079 1.791589 -0.387873 0.000000 0.000000 0.000000 -0.191806 2.389384 -0.519248 -11.094800 -0.194230 0.432493 -9.618916 2.159155 -3.032442 0.000001 0.000001 -0.000000 0.870927 -1.054916 -19.323112 0.000000 0.000000 0.000000 11.546892 -4.117297 -51.490908 0.000022 -61.781411 0.000019 -22.780940 13.089980 -18.094653 74.824012 -40.508076 61.030274 25.742785 5.432252 -83.085467 43.029519 21.690191 -34.839637 -0.000000 -0.000000 0.000000 5.812362 7.842445 -80.897252 5.404969 5.834096 -85.619864 -0.000000 0.000000 -0.000000 5.058256 8.221984 -91.397227 4.690540 5.735213 -78.540468 0.000001 0.000000 -0.000000 4.428774 8.252841 -91.919470 5.849373 5.851062 -89.983398 -0.000001 -0.000001 -0.000001 5.228976 8.401948 -99.733978 2.457542 4.769238 -54.503530 -0.000001 -0.000000 -0.000000 0.359532 6.327643 17.328658 0.000000 0.000000 0.000000 15.284186 -11.054893 47.591177 0.000023 67.686990 -0.000010 -3.676070 -17.827373 7.043247 47.809719 35.835373 -5.333807 34.631316 -33.014505 35.094595 43.315499 -17.127567 38.732295 0.000001 0.000000 0.000001 6.413953 -7.132867 84.101280 4.420313 -4.651141 87.081545 0.000000 -0.000000 -0.000001 7.888774 -6.638781 95.763610 4.359911 -4.647684 86.336330 0.000003 0.000000 -0.000002 5.609247 -6.844440 101.149890 3.623324 -4.541218 77.160176 -0.000001 -0.000000 -0.000001 5.460061 -6.871552 100.035115 1.712832 -3.609937 50.755084 0.000003 0.000003 0.000000 -31.706428 -6.379567 -5.764092 31.964162 -1.304558 -3.783471 -23.517666 0.460109 9.126649 -0.352320 0.000001 -0.000002 -0.000000 0.000001 0.000000 -66.303290 -2.861478 -13.745863 43.902899 -8.988514 -0.209315 15.665864 -5.018155 13.651281 -12.325214 0.039796 -1.683728 0.000000 -0.000000 -0.000000 
